<svg width="110" height="108" viewBox="0 0 110 108" fill="none" xmlns="http://www.w3.org/2000/svg">
  <rect x="2" width="108" height="108" rx="54" fill="#F6F8FA" />
  <path d="M23.9284 37.1605C24.6232 39.7536 22.507 42.5737 19.2016 43.4594C18.3752 43.6808 17.5528 43.7604 16.7732 43.7146" stroke="#868C98" stroke-width="3" stroke-linecap="round"
    stroke-linejoin="round" />
  <path d="M29.7013 58.7042C30.3961 61.2973 28.2799 64.1174 24.9745 65.0031C24.1482 65.2245 23.3257 65.3041 22.5461 65.2583" stroke="#868C98" stroke-width="3"
    stroke-linecap="round" stroke-linejoin="round" />
  <path d="M35.4738 80.248C36.1686 82.8411 34.0524 85.6612 30.747 86.5469C29.9206 86.7683 29.0982 86.8479 28.3186 86.8021" stroke="#868C98" stroke-width="3" stroke-linecap="round"
    stroke-linejoin="round" />
  <path
    d="M72.7325 16.0884L27.4231 28.229C25.0923 28.8536 23.7091 31.2494 24.3337 33.5802L40.1144 92.4747C40.7389 94.8055 43.1347 96.1887 45.4655 95.5642L90.7749 83.4236C93.1057 82.799 94.4889 80.4033 93.8644 78.0724L78.0837 19.1779C77.4591 16.8471 75.0633 15.4639 72.7325 16.0884Z"
    fill="#E2E4E9" stroke="#868C98" stroke-linecap="round" stroke-linejoin="round" />
  <path
    d="M63.8927 12.1292L18.5833 24.2698C16.2525 24.8943 14.8693 27.2901 15.4938 29.621L31.2745 88.5155C31.8991 90.8463 34.2949 92.2295 36.6257 91.605L81.9351 79.4644C84.2659 78.8398 85.6491 76.444 85.0246 74.1132L69.2438 15.2187C68.6193 12.8879 66.2235 11.5047 63.8927 12.1292Z"
    fill="white" stroke="#868C98" stroke-linecap="round" stroke-linejoin="round" />
  <path d="M16.7734 43.7141C14.4344 43.5769 12.4801 42.3121 11.959 40.3673C11.2641 37.7741 13.3803 34.954 16.6857 34.0684C19.9911 33.1827 23.2339 34.5669 23.9287 37.16"
    stroke="#868C98" stroke-width="3" stroke-linecap="round" stroke-linejoin="round" />
  <path d="M22.5459 65.258C20.2069 65.1208 18.2525 63.8559 17.7314 61.9111C17.0366 59.318 19.1528 56.4979 22.4582 55.6122C25.7636 54.7265 29.0063 56.1107 29.7012 58.7038"
    stroke="#868C98" stroke-width="3" stroke-linecap="round" stroke-linejoin="round" />
  <path d="M28.3184 86.8016C25.9794 86.6645 24.025 85.3996 23.5039 83.4548C22.8091 80.8617 24.9253 78.0416 28.2307 77.1559C31.5361 76.2702 34.7788 77.6544 35.4736 80.2475"
    stroke="#868C98" stroke-width="3" stroke-linecap="round" stroke-linejoin="round" />
  <path
    d="M38.1202 42.0887C42.0164 41.0447 44.3286 37.0398 43.2846 33.1436C42.2406 29.2474 38.2358 26.9352 34.3396 27.9792C30.4434 29.0232 28.1312 33.028 29.1752 36.9242C30.2192 40.8205 34.224 43.1327 38.1202 42.0887Z"
    fill="white" stroke="#868C98" stroke-linecap="round" stroke-linejoin="round" />
  <path d="M34.7074 39.1501C34.7074 39.1501 35.0691 37.8632 36.8595 37.3834C38.6498 36.9037 39.6066 37.8374 39.6066 37.8374" fill="white" />
  <path d="M34.7074 39.1501C34.7074 39.1501 35.0691 37.8632 36.8595 37.3834C38.6498 36.9037 39.6066 37.8374 39.6066 37.8374" stroke="#868C98" stroke-linecap="round"
    stroke-linejoin="round" />
  <path
    d="M33.3581 35.2889C33.9227 35.1376 34.2578 34.5573 34.1065 33.9927C33.9552 33.428 33.3748 33.093 32.8102 33.2443C32.2456 33.3955 31.9105 33.9759 32.0618 34.5405C32.2131 35.1051 32.7935 35.4402 33.3581 35.2889Z"
    fill="#868C98" stroke="#868C98" stroke-linecap="round" stroke-linejoin="round" />
  <path
    d="M38.8443 33.8187C39.409 33.6674 39.744 33.0871 39.5927 32.5224C39.4415 31.9578 38.8611 31.6227 38.2965 31.774C37.7319 31.9253 37.3968 32.5057 37.5481 33.0703C37.6994 33.6349 38.2797 33.97 38.8443 33.8187Z"
    fill="#868C98" stroke="#868C98" stroke-linecap="round" stroke-linejoin="round" />
  <path
    d="M48.4167 80.5154C52.3129 79.4714 54.6251 75.4666 53.5811 71.5704C52.5371 67.6742 48.5323 65.362 44.6361 66.406C40.7398 67.4499 38.4277 71.4548 39.4716 75.351C40.5156 79.2472 44.5205 81.5594 48.4167 80.5154Z"
    fill="white" stroke="#868C98" stroke-linecap="round" stroke-linejoin="round" />
  <path d="M44.7064 76.4666C44.7064 76.4666 45.6631 77.4002 47.4535 76.9205C49.2438 76.4408 49.6055 75.1538 49.6055 75.1538" fill="white" />
  <path d="M44.7064 76.4666C44.7064 76.4666 45.6631 77.4002 47.4535 76.9205C49.2438 76.4408 49.6055 75.1538 49.6055 75.1538" stroke="#868C98" stroke-linecap="round"
    stroke-linejoin="round" />
  <path
    d="M43.6546 73.7156C44.2192 73.5643 44.5542 72.9839 44.403 72.4193C44.2517 71.8547 43.6713 71.5196 43.1067 71.6709C42.5421 71.8222 42.207 72.4025 42.3583 72.9672C42.5096 73.5318 43.0899 73.8668 43.6546 73.7156Z"
    fill="#868C98" stroke="#868C98" stroke-linecap="round" stroke-linejoin="round" />
  <path
    d="M49.1403 72.2455C49.705 72.0942 50.04 71.5138 49.8887 70.9492C49.7374 70.3846 49.1571 70.0495 48.5925 70.2008C48.0278 70.3521 47.6928 70.9324 47.8441 71.4971C47.9954 72.0617 48.5757 72.3968 49.1403 72.2455Z"
    fill="#868C98" stroke="#868C98" stroke-linecap="round" stroke-linejoin="round" />
  <path
    d="M43.1198 60.7469C47.016 59.7029 49.3282 55.698 48.2842 51.8018C47.2402 47.9056 43.2354 45.5934 39.3392 46.6374C35.443 47.6814 33.1308 51.6862 34.1748 55.5824C35.2188 59.4787 39.2236 61.7909 43.1198 60.7469Z"
    fill="white" stroke="#868C98" stroke-linecap="round" stroke-linejoin="round" />
  <path
    d="M38.3578 53.9471C38.9224 53.7958 39.2575 53.2155 39.1062 52.6509C38.9549 52.0862 38.3745 51.7512 37.8099 51.9025C37.2453 52.0537 36.9102 52.6341 37.0615 53.1987C37.2128 53.7633 37.7931 54.0984 38.3578 53.9471Z"
    fill="#868C98" stroke="#868C98" stroke-linecap="round" stroke-linejoin="round" />
  <path
    d="M43.8441 52.477C44.4087 52.3257 44.7438 51.7454 44.5925 51.1808C44.4412 50.6161 43.8609 50.2811 43.2962 50.4324C42.7316 50.5837 42.3965 51.164 42.5478 51.7286C42.6991 52.2933 43.2795 52.6283 43.8441 52.477Z"
    fill="#868C98" stroke="#868C98" stroke-linecap="round" stroke-linejoin="round" />
  <path d="M39.6142 57.1121L44.3384 55.8462" stroke="#868C98" stroke-linecap="round" stroke-linejoin="round" />
  <path
    d="M63.0497 25.1413L47.1726 29.3955C46.7686 29.5038 46.5289 29.9191 46.6371 30.323L47.2583 32.6413C47.3665 33.0453 47.7818 33.285 48.1858 33.1768L64.0629 28.9225C64.4669 28.8143 64.7066 28.399 64.5984 27.995L63.9772 25.6768C63.869 25.2728 63.4537 25.033 63.0497 25.1413Z"
    fill="#E2E4E9" />
  <path
    d="M68.2187 44.4334L52.3415 48.6877C51.9375 48.7959 51.6978 49.2112 51.8061 49.6152L52.4272 51.9334C52.5355 52.3374 52.9507 52.5771 53.3547 52.4689L69.2318 48.2146C69.6358 48.1064 69.8756 47.6911 69.7673 47.2871L69.1462 44.9689C69.0379 44.5649 68.6227 44.3252 68.2187 44.4334Z"
    fill="#E2E4E9" />
  <path
    d="M73.3886 63.7265L57.5115 67.9808C57.1075 68.089 56.8677 68.5043 56.976 68.9083L57.5971 71.2265C57.7054 71.6305 58.1206 71.8702 58.5246 71.762L74.4018 67.5077C74.8057 67.3995 75.0455 66.9842 74.9372 66.5802L74.3161 64.262C74.2078 63.858 73.7926 63.6182 73.3886 63.7265Z"
    fill="#E2E4E9" />
  <path
    d="M72.4725 96.3944L103.001 88.3746C103.086 88.3523 103.165 88.3262 103.243 88.3002C103.25 88.3039 103.255 88.3026 103.258 88.2963C103.356 88.2813 103.451 88.2564 103.546 88.2314C106.745 87.3911 108.653 84.1219 107.813 80.9232C107.304 78.9839 105.899 77.5203 104.157 76.8505C103.034 76.4188 101.764 76.3249 100.505 76.6558L69.6497 80.4015C73.556 80.0378 77.2571 82.5332 78.2852 86.4467C79.4275 90.7951 76.8258 95.2507 72.4725 96.3944Z"
    fill="#CDD0D5" stroke="#868C98" stroke-linecap="round" stroke-linejoin="round" />
  <path
    d="M54.7397 60.8822L62.5258 90.5863C63.6681 94.9346 68.1237 97.5363 72.4721 96.394C76.8255 95.2504 79.4272 90.7948 78.2848 86.4464C77.2568 82.5329 73.5557 80.0375 69.6493 80.4012L100.504 76.6555C101.764 76.3246 103.034 76.4185 104.157 76.8501L97.0588 49.7651C96.4903 47.6009 94.2751 46.3074 92.1159 46.8746L57.6238 55.9357C55.4596 56.5042 54.1712 58.718 54.7397 60.8822Z"
    fill="#F6F8FA" stroke="#868C98" stroke-linecap="round" stroke-linejoin="round" />
  <path d="M89.5553 55.9375L84.8371 63.9731" stroke="#868C98" stroke-linecap="round" stroke-linejoin="round" />
  <path d="M83.1789 57.5967L91.2145 62.3149" stroke="#868C98" stroke-linecap="round" stroke-linejoin="round" />
  <path d="M70.0748 61.0049L65.3566 69.0404" stroke="#868C98" stroke-linecap="round" stroke-linejoin="round" />
  <path d="M63.6984 62.6631L71.734 67.3814" stroke="#868C98" stroke-linecap="round" stroke-linejoin="round" />
  <path d="M88.9411 69.9053L72.4068 74.2059" stroke="#868C98" stroke-linecap="round" stroke-linejoin="round" />
  <path
    d="M9.79172 64.946C9.79172 64.946 5.87152 69.545 10.4414 73.4674C5.87144 69.5449 1.92008 74.1171 1.92008 74.1171C1.92008 74.1171 5.84028 69.5181 1.27027 65.5956C5.84028 69.5181 9.79172 64.946 9.79172 64.946Z"
    fill="white" stroke="#868C98" stroke-linecap="round" stroke-linejoin="round" />
  <path
    d="M106.846 24.0811C106.846 24.0811 102.926 28.6801 107.495 32.6025C102.925 28.6801 98.9741 33.2522 98.9741 33.2522C98.9741 33.2522 102.894 28.6532 98.3243 24.7308C102.894 28.6532 106.846 24.0811 106.846 24.0811Z"
    fill="white" stroke="#868C98" stroke-linecap="round" stroke-linejoin="round" />
</svg>